<mxfile host="Electron" modified="2023-11-09T19:28:04.469Z" agent="Mozilla/5.0 (Windows NT 10.0; Win64; x64) AppleWebKit/537.36 (KHTML, like Gecko) draw.io/22.0.3 Chrome/114.0.5735.289 Electron/25.8.4 Safari/537.36" etag="8aLyA8pj4o6vS2T-QEIG" version="22.0.3" type="device">
  <diagram id="C5RBs43oDa-KdzZeNtuy" name="Page-1">
    <mxGraphModel dx="2150" dy="1048" grid="1" gridSize="10" guides="1" tooltips="1" connect="1" arrows="1" fold="1" page="0" pageScale="1" pageWidth="827" pageHeight="1169" math="0" shadow="0">
      <root>
        <mxCell id="WIyWlLk6GJQsqaUBKTNV-0" />
        <mxCell id="WIyWlLk6GJQsqaUBKTNV-1" parent="WIyWlLk6GJQsqaUBKTNV-0" />
        <mxCell id="9wMWni4tVxV4OdvPeqD4-2" style="edgeStyle=orthogonalEdgeStyle;rounded=0;orthogonalLoop=1;jettySize=auto;html=1;exitX=0.5;exitY=1;exitDx=0;exitDy=0;entryX=0.5;entryY=0;entryDx=0;entryDy=0;" edge="1" parent="WIyWlLk6GJQsqaUBKTNV-1" source="9wMWni4tVxV4OdvPeqD4-0" target="9wMWni4tVxV4OdvPeqD4-1">
          <mxGeometry relative="1" as="geometry" />
        </mxCell>
        <mxCell id="9wMWni4tVxV4OdvPeqD4-0" value="Start" style="ellipse;whiteSpace=wrap;html=1;" vertex="1" parent="WIyWlLk6GJQsqaUBKTNV-1">
          <mxGeometry x="140" y="80" width="120" height="80" as="geometry" />
        </mxCell>
        <mxCell id="9wMWni4tVxV4OdvPeqD4-6" style="edgeStyle=orthogonalEdgeStyle;rounded=0;orthogonalLoop=1;jettySize=auto;html=1;exitX=0.5;exitY=1;exitDx=0;exitDy=0;entryX=0.5;entryY=0;entryDx=0;entryDy=0;" edge="1" parent="WIyWlLk6GJQsqaUBKTNV-1" source="9wMWni4tVxV4OdvPeqD4-1" target="9wMWni4tVxV4OdvPeqD4-5">
          <mxGeometry relative="1" as="geometry" />
        </mxCell>
        <mxCell id="9wMWni4tVxV4OdvPeqD4-1" value="edge1, edge2, edge3" style="rounded=0;whiteSpace=wrap;html=1;" vertex="1" parent="WIyWlLk6GJQsqaUBKTNV-1">
          <mxGeometry x="140" y="210" width="120" height="60" as="geometry" />
        </mxCell>
        <mxCell id="9wMWni4tVxV4OdvPeqD4-9" style="edgeStyle=orthogonalEdgeStyle;rounded=0;orthogonalLoop=1;jettySize=auto;html=1;exitX=1;exitY=0.5;exitDx=0;exitDy=0;entryX=0;entryY=0.5;entryDx=0;entryDy=0;" edge="1" parent="WIyWlLk6GJQsqaUBKTNV-1" source="9wMWni4tVxV4OdvPeqD4-5" target="9wMWni4tVxV4OdvPeqD4-8">
          <mxGeometry relative="1" as="geometry" />
        </mxCell>
        <mxCell id="9wMWni4tVxV4OdvPeqD4-24" style="edgeStyle=orthogonalEdgeStyle;rounded=0;orthogonalLoop=1;jettySize=auto;html=1;exitX=0;exitY=0.5;exitDx=0;exitDy=0;entryX=0.5;entryY=0;entryDx=0;entryDy=0;" edge="1" parent="WIyWlLk6GJQsqaUBKTNV-1" source="9wMWni4tVxV4OdvPeqD4-5" target="9wMWni4tVxV4OdvPeqD4-23">
          <mxGeometry relative="1" as="geometry" />
        </mxCell>
        <mxCell id="9wMWni4tVxV4OdvPeqD4-5" value="edge1 = edge2 or&lt;br&gt;edge1 = edge3 or&lt;br&gt;edge2 = edge3." style="rhombus;whiteSpace=wrap;html=1;" vertex="1" parent="WIyWlLk6GJQsqaUBKTNV-1">
          <mxGeometry x="120" y="320" width="160" height="130" as="geometry" />
        </mxCell>
        <mxCell id="9wMWni4tVxV4OdvPeqD4-12" style="edgeStyle=orthogonalEdgeStyle;rounded=0;orthogonalLoop=1;jettySize=auto;html=1;exitX=1;exitY=0.5;exitDx=0;exitDy=0;entryX=0.5;entryY=0;entryDx=0;entryDy=0;" edge="1" parent="WIyWlLk6GJQsqaUBKTNV-1" source="9wMWni4tVxV4OdvPeqD4-8" target="9wMWni4tVxV4OdvPeqD4-11">
          <mxGeometry relative="1" as="geometry" />
        </mxCell>
        <mxCell id="9wMWni4tVxV4OdvPeqD4-15" style="edgeStyle=orthogonalEdgeStyle;rounded=0;orthogonalLoop=1;jettySize=auto;html=1;exitX=0.5;exitY=1;exitDx=0;exitDy=0;" edge="1" parent="WIyWlLk6GJQsqaUBKTNV-1" source="9wMWni4tVxV4OdvPeqD4-8" target="9wMWni4tVxV4OdvPeqD4-13">
          <mxGeometry relative="1" as="geometry" />
        </mxCell>
        <mxCell id="9wMWni4tVxV4OdvPeqD4-8" value="edge1^2 + edge2^2 = edge3^2 or&lt;br&gt;edge1^2 + edge3^2 = edge2^2 or&lt;br&gt;edge2^2 + edge3^2 = edge1^2.&amp;nbsp;" style="rhombus;whiteSpace=wrap;html=1;" vertex="1" parent="WIyWlLk6GJQsqaUBKTNV-1">
          <mxGeometry x="410" y="275" width="220" height="220" as="geometry" />
        </mxCell>
        <mxCell id="9wMWni4tVxV4OdvPeqD4-10" value="True" style="text;html=1;align=center;verticalAlign=middle;resizable=0;points=[];autosize=1;strokeColor=none;fillColor=none;" vertex="1" parent="WIyWlLk6GJQsqaUBKTNV-1">
          <mxGeometry x="280" y="350" width="50" height="30" as="geometry" />
        </mxCell>
        <mxCell id="9wMWni4tVxV4OdvPeqD4-11" value="Đây là tam giác vuông cân" style="shape=parallelogram;perimeter=parallelogramPerimeter;whiteSpace=wrap;html=1;fixedSize=1;" vertex="1" parent="WIyWlLk6GJQsqaUBKTNV-1">
          <mxGeometry x="680" y="740" width="120" height="60" as="geometry" />
        </mxCell>
        <mxCell id="9wMWni4tVxV4OdvPeqD4-18" style="edgeStyle=orthogonalEdgeStyle;rounded=0;orthogonalLoop=1;jettySize=auto;html=1;exitX=0.5;exitY=1;exitDx=0;exitDy=0;entryX=0.5;entryY=0;entryDx=0;entryDy=0;" edge="1" parent="WIyWlLk6GJQsqaUBKTNV-1" source="9wMWni4tVxV4OdvPeqD4-13" target="9wMWni4tVxV4OdvPeqD4-17">
          <mxGeometry relative="1" as="geometry" />
        </mxCell>
        <mxCell id="9wMWni4tVxV4OdvPeqD4-20" style="edgeStyle=orthogonalEdgeStyle;rounded=0;orthogonalLoop=1;jettySize=auto;html=1;exitX=0;exitY=0.5;exitDx=0;exitDy=0;" edge="1" parent="WIyWlLk6GJQsqaUBKTNV-1" source="9wMWni4tVxV4OdvPeqD4-13" target="9wMWni4tVxV4OdvPeqD4-19">
          <mxGeometry relative="1" as="geometry" />
        </mxCell>
        <mxCell id="9wMWni4tVxV4OdvPeqD4-13" value="edge1 = edge2 = edge3" style="rhombus;whiteSpace=wrap;html=1;" vertex="1" parent="WIyWlLk6GJQsqaUBKTNV-1">
          <mxGeometry x="450" y="560" width="140" height="120" as="geometry" />
        </mxCell>
        <mxCell id="9wMWni4tVxV4OdvPeqD4-14" value="True" style="text;html=1;align=center;verticalAlign=middle;resizable=0;points=[];autosize=1;strokeColor=none;fillColor=none;" vertex="1" parent="WIyWlLk6GJQsqaUBKTNV-1">
          <mxGeometry x="640" y="350" width="50" height="30" as="geometry" />
        </mxCell>
        <mxCell id="9wMWni4tVxV4OdvPeqD4-16" value="False" style="text;html=1;align=center;verticalAlign=middle;resizable=0;points=[];autosize=1;strokeColor=none;fillColor=none;" vertex="1" parent="WIyWlLk6GJQsqaUBKTNV-1">
          <mxGeometry x="520" y="508" width="50" height="30" as="geometry" />
        </mxCell>
        <mxCell id="9wMWni4tVxV4OdvPeqD4-17" value="Đây là tam giác đều" style="shape=parallelogram;perimeter=parallelogramPerimeter;whiteSpace=wrap;html=1;fixedSize=1;" vertex="1" parent="WIyWlLk6GJQsqaUBKTNV-1">
          <mxGeometry x="460" y="740" width="120" height="60" as="geometry" />
        </mxCell>
        <mxCell id="9wMWni4tVxV4OdvPeqD4-19" value="Đây là cân" style="shape=parallelogram;perimeter=parallelogramPerimeter;whiteSpace=wrap;html=1;fixedSize=1;" vertex="1" parent="WIyWlLk6GJQsqaUBKTNV-1">
          <mxGeometry x="290" y="740" width="120" height="60" as="geometry" />
        </mxCell>
        <mxCell id="9wMWni4tVxV4OdvPeqD4-21" value="True" style="text;html=1;align=center;verticalAlign=middle;resizable=0;points=[];autosize=1;strokeColor=none;fillColor=none;" vertex="1" parent="WIyWlLk6GJQsqaUBKTNV-1">
          <mxGeometry x="515" y="688" width="50" height="30" as="geometry" />
        </mxCell>
        <mxCell id="9wMWni4tVxV4OdvPeqD4-22" value="False" style="text;html=1;align=center;verticalAlign=middle;resizable=0;points=[];autosize=1;strokeColor=none;fillColor=none;" vertex="1" parent="WIyWlLk6GJQsqaUBKTNV-1">
          <mxGeometry x="380" y="590" width="50" height="30" as="geometry" />
        </mxCell>
        <mxCell id="9wMWni4tVxV4OdvPeqD4-26" style="edgeStyle=orthogonalEdgeStyle;rounded=0;orthogonalLoop=1;jettySize=auto;html=1;exitX=1;exitY=0.5;exitDx=0;exitDy=0;" edge="1" parent="WIyWlLk6GJQsqaUBKTNV-1" source="9wMWni4tVxV4OdvPeqD4-23" target="9wMWni4tVxV4OdvPeqD4-25">
          <mxGeometry relative="1" as="geometry" />
        </mxCell>
        <mxCell id="9wMWni4tVxV4OdvPeqD4-29" style="edgeStyle=orthogonalEdgeStyle;rounded=0;orthogonalLoop=1;jettySize=auto;html=1;exitX=0;exitY=0.5;exitDx=0;exitDy=0;entryX=0.5;entryY=0;entryDx=0;entryDy=0;" edge="1" parent="WIyWlLk6GJQsqaUBKTNV-1" source="9wMWni4tVxV4OdvPeqD4-23" target="9wMWni4tVxV4OdvPeqD4-27">
          <mxGeometry relative="1" as="geometry" />
        </mxCell>
        <mxCell id="9wMWni4tVxV4OdvPeqD4-23" value="edge1^2 + edge2^2 = edge3^2 or&lt;br style=&quot;border-color: var(--border-color);&quot;&gt;edge1^2 + edge3^2 = edge2^2 or&lt;br style=&quot;border-color: var(--border-color);&quot;&gt;edge2^2 + edge3^2 = edge1^2.&amp;nbsp;" style="rhombus;whiteSpace=wrap;html=1;" vertex="1" parent="WIyWlLk6GJQsqaUBKTNV-1">
          <mxGeometry x="-60" y="440" width="220" height="200" as="geometry" />
        </mxCell>
        <mxCell id="9wMWni4tVxV4OdvPeqD4-25" value="Đây là tam giác vuông" style="shape=parallelogram;perimeter=parallelogramPerimeter;whiteSpace=wrap;html=1;fixedSize=1;" vertex="1" parent="WIyWlLk6GJQsqaUBKTNV-1">
          <mxGeometry x="130" y="740" width="120" height="60" as="geometry" />
        </mxCell>
        <mxCell id="9wMWni4tVxV4OdvPeqD4-35" style="edgeStyle=orthogonalEdgeStyle;rounded=0;orthogonalLoop=1;jettySize=auto;html=1;exitX=0;exitY=0.5;exitDx=0;exitDy=0;entryX=0.5;entryY=0;entryDx=0;entryDy=0;" edge="1" parent="WIyWlLk6GJQsqaUBKTNV-1" source="9wMWni4tVxV4OdvPeqD4-27" target="9wMWni4tVxV4OdvPeqD4-34">
          <mxGeometry relative="1" as="geometry" />
        </mxCell>
        <mxCell id="9wMWni4tVxV4OdvPeqD4-27" value="edge1 + edge2 &amp;gt; edge3 or&lt;br&gt;edge1 + edge3 &amp;gt; edge2 or&lt;br&gt;edge2 + edge3 &amp;gt; edge1" style="rhombus;whiteSpace=wrap;html=1;" vertex="1" parent="WIyWlLk6GJQsqaUBKTNV-1">
          <mxGeometry x="-190" y="570" width="200" height="190" as="geometry" />
        </mxCell>
        <mxCell id="9wMWni4tVxV4OdvPeqD4-28" value="True" style="text;html=1;align=center;verticalAlign=middle;resizable=0;points=[];autosize=1;strokeColor=none;fillColor=none;" vertex="1" parent="WIyWlLk6GJQsqaUBKTNV-1">
          <mxGeometry x="155" y="498" width="50" height="30" as="geometry" />
        </mxCell>
        <mxCell id="9wMWni4tVxV4OdvPeqD4-30" value="3 cạnh không &lt;br&gt;phải tam giác" style="shape=parallelogram;perimeter=parallelogramPerimeter;whiteSpace=wrap;html=1;fixedSize=1;" vertex="1" parent="WIyWlLk6GJQsqaUBKTNV-1">
          <mxGeometry x="-40" y="740" width="110" height="60" as="geometry" />
        </mxCell>
        <mxCell id="9wMWni4tVxV4OdvPeqD4-31" style="edgeStyle=orthogonalEdgeStyle;rounded=0;orthogonalLoop=1;jettySize=auto;html=1;exitX=1;exitY=0.5;exitDx=0;exitDy=0;entryX=0.667;entryY=0;entryDx=0;entryDy=0;entryPerimeter=0;" edge="1" parent="WIyWlLk6GJQsqaUBKTNV-1" source="9wMWni4tVxV4OdvPeqD4-27" target="9wMWni4tVxV4OdvPeqD4-30">
          <mxGeometry relative="1" as="geometry" />
        </mxCell>
        <mxCell id="9wMWni4tVxV4OdvPeqD4-32" value="False" style="text;html=1;align=center;verticalAlign=middle;resizable=0;points=[];autosize=1;strokeColor=none;fillColor=none;" vertex="1" parent="WIyWlLk6GJQsqaUBKTNV-1">
          <mxGeometry x="-135" y="498" width="50" height="30" as="geometry" />
        </mxCell>
        <mxCell id="9wMWni4tVxV4OdvPeqD4-33" value="False" style="text;html=1;align=center;verticalAlign=middle;resizable=0;points=[];autosize=1;strokeColor=none;fillColor=none;" vertex="1" parent="WIyWlLk6GJQsqaUBKTNV-1">
          <mxGeometry x="25" y="668" width="50" height="30" as="geometry" />
        </mxCell>
        <mxCell id="9wMWni4tVxV4OdvPeqD4-34" value="Đây là tam giác thường" style="shape=parallelogram;perimeter=parallelogramPerimeter;whiteSpace=wrap;html=1;fixedSize=1;" vertex="1" parent="WIyWlLk6GJQsqaUBKTNV-1">
          <mxGeometry x="-290" y="740" width="120" height="60" as="geometry" />
        </mxCell>
        <mxCell id="9wMWni4tVxV4OdvPeqD4-36" value="True" style="text;html=1;align=center;verticalAlign=middle;resizable=0;points=[];autosize=1;strokeColor=none;fillColor=none;" vertex="1" parent="WIyWlLk6GJQsqaUBKTNV-1">
          <mxGeometry x="-255" y="628" width="50" height="30" as="geometry" />
        </mxCell>
      </root>
    </mxGraphModel>
  </diagram>
</mxfile>
